<svg width="120" height="128" viewBox="0 0 120 128" fill="none" xmlns="http://www.w3.org/2000/svg">
<rect width="120" height="128" rx="16" fill="#E39B0A"/>
<path d="M15.089 10.0655H30.2059L36.5452 30.3514H37.0329L50.1017 10.0655H65.2186L41.2266 44.2979L38.5933 60H25.1344L27.7677 44.2979L15.089 10.0655Z" fill="#282828"/>
<path d="M110.147 35.9105C109.237 41.3396 107.433 45.8909 104.734 49.5645C102.036 53.238 98.7607 56.0095 94.9083 57.8788C91.0559 59.7481 86.9353 60.6827 82.5466 60.6827C77.8652 60.6827 73.8015 59.6668 70.3555 57.6349C66.9095 55.6031 64.3981 52.6285 62.8214 48.7111C61.2447 44.7937 60.9278 40.0067 61.8705 34.35C62.7483 28.9209 64.5363 24.3534 67.2346 20.6473C69.9329 16.9412 73.2245 14.1373 77.1093 12.2355C80.9942 10.3337 85.1473 9.38275 89.5686 9.38275C94.2175 9.38275 98.2568 10.4068 101.687 12.4549C105.133 14.503 107.636 17.502 109.196 21.4519C110.773 25.4018 111.09 30.2213 110.147 35.9105ZM96.4931 34.35C96.9482 31.4892 96.9808 29.0835 96.5906 27.1329C96.2005 25.1661 95.3797 23.6869 94.128 22.6954C92.8764 21.6876 91.1941 21.1837 89.081 21.1837C86.6753 21.1837 84.5459 21.7689 82.6928 22.9392C80.8398 24.1095 79.3037 25.7919 78.0846 27.9863C76.8655 30.1807 76.0121 32.8221 75.5245 35.9105C75.0044 38.8038 74.9556 41.2095 75.3782 43.1276C75.8171 45.0456 76.6786 46.4842 77.9627 47.4432C79.2631 48.4022 80.9536 48.8818 83.0342 48.8818C85.4074 48.8818 87.5042 48.3128 89.3248 47.175C91.1616 46.0372 92.6814 44.3873 93.8842 42.2254C95.1033 40.0636 95.973 37.4384 96.4931 34.35Z" fill="#282828"/>
<path d="M12.1662 118L20.4561 68.0655H42.1074C45.911 68.0655 49.0238 68.5775 51.4457 69.6015C53.8839 70.6256 55.6069 72.0722 56.6147 73.9415C57.6388 75.8108 57.9395 78.0133 57.5169 80.5491C57.1918 82.3696 56.4928 84.0357 55.42 85.5474C54.3635 87.0429 53.0224 88.3107 51.397 89.351C49.7877 90.3751 47.9916 91.0822 46.0085 91.4723L45.911 91.9599C48.0566 92.0249 49.9259 92.5613 51.5189 93.5691C53.1118 94.5607 54.2822 95.9423 55.0299 97.7141C55.7776 99.4696 55.9564 101.518 55.5663 103.858C55.1112 106.589 53.9977 109.019 52.226 111.149C50.4542 113.278 48.1541 114.952 45.3258 116.171C42.4975 117.39 39.2791 118 35.6705 118H12.1662ZM27.5757 107.174H33.915C36.1582 107.174 37.9218 106.744 39.2059 105.882C40.5063 105.021 41.2784 103.761 41.5222 102.103C41.7173 100.933 41.6197 99.941 41.2296 99.1283C40.8395 98.3155 40.1812 97.6978 39.2547 97.2752C38.3282 96.8526 37.1659 96.6413 35.768 96.6413H29.2336L27.5757 107.174ZM30.6966 88.2538H36.2557C37.426 88.2538 38.4988 88.0669 39.4741 87.693C40.4494 87.3192 41.254 86.7747 41.8879 86.0594C42.5219 85.3442 42.9201 84.4827 43.0827 83.4749C43.3265 81.9145 42.9526 80.7279 41.9611 79.9152C40.9858 79.1024 39.6692 78.696 38.0112 78.696H32.257L30.6966 88.2538Z" fill="#282828"/>
<path d="M96.9533 68.0655L88.6634 118H75.107L83.3969 68.0655H96.9533Z" fill="#282828"/>
</svg>
